<?xml version="1.0" encoding="utf-8"?>
<!-- Generator: Adobe Illustrator 16.0.0, SVG Export Plug-In . SVG Version: 6.00 Build 0)  -->
<!DOCTYPE svg PUBLIC "-//W3C//DTD SVG 1.1//EN" "http://www.w3.org/Graphics/SVG/1.1/DTD/svg11.dtd">
<svg version="1.1" id="Layer_1" xmlns="http://www.w3.org/2000/svg" xmlns:xlink="http://www.w3.org/1999/xlink" x="0px" y="0px"
	 width="512px" height="512px" viewBox="5122.702 597.677 512 512" style="enable-background:new 5122.702 597.677 512 512;"
	 xml:space="preserve">
<style type="text/css">
<![CDATA[
	.st0{fill:#E8E8E8;stroke:#000000;stroke-width:13;stroke-miterlimit:10;}
	.st1{fill:#E6E6E6;}
	.st2{fill:#E8E8E8;}
	.st3{fill:#FFFFFF;stroke:#000000;stroke-width:14;stroke-linecap:round;stroke-linejoin:round;stroke-miterlimit:10;}
	.st4{fill:#F2A46F;}
	.st5{fill:#F6554D;}
	.st6{fill:#F6554D;stroke:#000000;stroke-width:16;stroke-linecap:round;stroke-linejoin:round;stroke-miterlimit:10;}
	.st7{fill:#999999;}
	.st8{fill:#FD7B2F;}
	.st9{fill:#FDB62F;}
	.st10{fill:#FFFFFF;}
	.st11{fill:#005672;stroke:#000000;stroke-width:14;stroke-linecap:round;stroke-linejoin:round;stroke-miterlimit:10;}
	.st12{fill-rule:evenodd;clip-rule:evenodd;fill:#F6554D;}
	.st13{fill:#005672;stroke:#000000;stroke-width:16;stroke-linecap:round;stroke-linejoin:round;stroke-miterlimit:10;}
	.st14{fill:#6B962A;}
	.st15{fill:#005672;}
	.st16{fill-rule:evenodd;clip-rule:evenodd;fill:#FFFFFF;}
	.st17{fill:#3E8CC7;}
	.st18{fill:none;stroke:#000000;stroke-width:16;stroke-linecap:round;stroke-linejoin:round;stroke-miterlimit:10;}
	.st19{display:none;}
	.st20{fill-rule:evenodd;clip-rule:evenodd;fill:#005672;}
]]>
</style>
<g>
	<path class="st2" d="M5147.563,718.045c-0.843,1.283-1.329,2.793-1.329,4.387v262.487c0,3.079,1.76,5.88,4.53,7.221
		l220.967,106.676c2.201,1.062,4.586,1.595,6.971,1.595V829.629L5147.563,718.045z"/>
	<g>
		<path d="M5378.702,1108.408c-3.594,0-7.206-0.825-10.444-2.386l-220.972-106.679c-5.501-2.662-9.052-8.323-9.052-14.425V722.431
			c0-6.108,3.555-11.771,9.056-14.423l220.964-106.67c6.479-3.129,14.417-3.129,20.897,0l220.966,106.672
			c5.5,2.655,9.054,8.317,9.054,14.425v262.485c0,6.107-3.554,11.77-9.055,14.424l-220.965,106.675
			C5385.907,1107.583,5382.296,1108.408,5378.702,1108.408z M5378.702,614.947c-1.201,0-2.409,0.277-3.492,0.8l-220.968,106.672
			l-0.008,262.5l220.976,106.692c2.158,1.041,4.82,1.044,6.99-0.003l220.961-106.673l0.01-262.5l-220.976-106.688
			C5381.111,615.224,5379.903,614.947,5378.702,614.947z"/>
		<path d="M5378.702,1108.41c-3.593,0-7.205-0.826-10.445-2.389l-220.971-106.678c-5.501-2.662-9.052-8.323-9.052-14.425V722.431
			c0-3.111,0.914-6.146,2.643-8.778c2.203-3.354,6.551-4.56,10.164-2.812l231.139,111.584c2.766,1.335,4.522,4.134,4.522,7.204
			v270.781C5386.702,1104.828,5383.12,1108.41,5378.702,1108.41z M5154.25,730.156l-0.016,254.763l216.468,104.516V834.65
			L5154.25,730.156z"/>
		<path d="M5378.702,1108.41c-4.418,0-8-3.582-8-8V829.629c0-3.07,1.757-5.869,4.521-7.204l231.135-111.584
			c3.614-1.745,7.96-0.543,10.163,2.809c1.733,2.637,2.649,5.673,2.649,8.782v262.487c0,6.102-3.551,11.762-9.046,14.422
			l-220.974,106.679C5385.901,1107.585,5382.291,1108.41,5378.702,1108.41z M5386.702,834.65v254.784l216.459-104.499l0.01-254.789
			L5386.702,834.65z"/>
		<g>
			<polygon class="st15" points="5531.511,755.73 5299.562,643.676 5238.421,673.314 5470.888,785.541 			"/>
			<path d="M5470.888,793.541c-1.189,0-2.379-0.265-3.478-0.796l-232.467-112.227c-2.764-1.333-4.52-4.13-4.522-7.197
				c-0.003-3.068,1.75-5.867,4.511-7.206l61.141-29.639c2.198-1.065,4.766-1.068,6.97-0.004l231.949,112.055
				c2.754,1.33,4.509,4.116,4.52,7.175c0.011,3.06-1.725,5.857-4.47,7.207l-60.623,29.811
				C5473.305,793.267,5472.097,793.541,5470.888,793.541z M5256.791,673.3l214.064,103.342l42.396-20.848l-213.685-103.23
				L5256.791,673.3z"/>
		</g>
		<g>
			<path class="st15" d="M5470.888,785.541v86.941c0,2.952,3.088,4.893,5.751,3.608l50.339-24.304
				c2.773-1.336,4.533-4.141,4.533-7.217v-88.84L5470.888,785.541z"/>
			<path d="M5474.897,884.494L5474.897,884.494c-6.623-0.001-12.01-5.39-12.01-12.012v-86.941c0-3.049,1.733-5.833,4.47-7.179
				l60.623-29.811c2.479-1.218,5.412-1.072,7.759,0.388c2.346,1.46,3.771,4.028,3.771,6.791v88.84c0,6.11-3.557,11.772-9.062,14.424
				l-50.332,24.301C5478.466,884.091,5476.711,884.494,5474.897,884.494z M5478.888,790.522v75.599l44.611-21.538l0.01-76.003
				L5478.888,790.522z"/>
		</g>
		<path class="st19" d="M5614.434,710.646l-232.472-112.225c-2.061-0.992-4.459-0.992-6.52,0l-232.472,112.225
			c-2.593,1.252-4.236,3.877-4.236,6.756v272.55c0,2.879,1.644,5.504,4.236,6.752l232.472,112.229
			c1.026,0.498,2.145,0.745,3.26,0.745s2.229-0.247,3.26-0.745l232.472-112.229c2.589-1.248,4.236-3.873,4.236-6.752v-272.55
			C5618.67,714.523,5617.022,711.898,5614.434,710.646z M5378.702,613.504l215.217,103.898l-62.387,30.117
			c-0.395-0.301-0.812-0.58-1.27-0.799l-213.757-103.189L5378.702,613.504z M5299.569,652.01l214.906,103.746l-44.018,21.248
			l-214.814-103.705L5299.569,652.01z M5478.389,789.834l41.114-19.848v78.545l-41.114,19.848V789.834z M5386.202,1090.231V834.336
			l51.874-25.041c3.729-1.803,5.291-6.285,3.492-10.016c-1.802-3.729-6.283-5.295-10.016-3.492l-52.851,25.514l-20.797-10.041
			c-3.732-1.803-8.212-0.236-10.016,3.492c-1.799,3.734-0.236,8.217,3.493,10.016l19.819,9.568v255.892l-217.471-104.981V729.349
			l165.601,79.945c1.052,0.508,2.163,0.748,3.256,0.748c2.787,0,5.465-1.561,6.759-4.24c1.804-3.73,0.237-8.213-3.492-10.016
			l-162.372-78.385l74.508-35.969l225.293,108.766c0.034,0.045,0.07,0.084,0.104,0.131v89.998c0,2.582,1.326,4.981,3.515,6.354
			c1.213,0.762,2.597,1.146,3.985,1.146c1.111,0,2.227-0.247,3.26-0.744l56.115-27.091c2.593-1.249,4.239-3.873,4.239-6.753v-90.496
			l69.168-33.393v255.895L5386.202,1090.231z"/>
	</g>
	<g>
		<g>
			<path class="st10" d="M5287.837,993.74c-0.916-0.438-1.829-1.175-2.653-2.166l-30.389-35.393l-30.79,6.385
				c-0.808,0.158-1.706,0.018-2.617-0.412c-1.656-0.78-3.226-2.448-4.288-4.554c-1.062-2.104-1.512-4.434-1.223-6.368l1.949-13.125
				c0.014-0.086,0.027-0.17,0.043-0.254l4.051-27.222l-24.889-41.118c-1.542-2.506-2.094-5.526-1.423-7.794
				c0.671-2.269,2.451-3.398,4.589-2.911l12.869,2.911c0.061,0.013,0.121,0.028,0.182,0.045l21.581,4.834l15.736-33.807
				c0.974-2.106,2.954-2.925,5.114-2.11c0.005,0.002,0.01,0.004,0.014,0.005c0.801,0.305,1.574,0.815,2.277,1.481
				c1.202,1.137,2.201,2.729,2.794,4.532l15.142,46.692l21.469,12.98c0.061,0.034,0.12,0.068,0.18,0.106l12.783,7.811
				c2.122,1.301,3.864,4.032,4.494,7.043c0.629,3.012,0.037,5.775-1.525,7.123l-25.243,21.352l3.61,32.021
				c0.015,0.101,0.027,0.2,0.039,0.301l1.736,15.547c0.346,3.106-0.65,5.592-2.536,6.321
				C5289.975,994.359,5288.903,994.252,5287.837,993.74z"/>
			<path d="M5255.644,837.969l4.714,14.365l11.733,36.238l13.841,8.4l0.006,0.001l4.555,2.781l6.165,3.772l0.004-0.001l12.774,7.864
				l-12.928,11.037h-0.001l-9.029,7.585l0.001,0.002l-5.438,4.519l0.43,3.783l3.691,32.486l0.006,0.011l1.744,15.499l-0.002-0.004
				v0.004l-19.809-23.135l-13.248-15.22l-13.386,2.922l-20.051,4.14v-0.002l-0.003,0.002l1.957-13.171l0.006-0.007l4.137-27.8
				l0.481-3.26l-5.354-8.977l0.002-0.002l-8.896-14.785l-0.002-0.001l-12.746-20.906l12.861,2.967l0.004,0.005l6.201,1.424
				l4.579,1.046l0.005,0.003l13.906,3.164l12.193-26.163l4.894-10.589l0.001,0.003L5255.644,837.969 M5255.748,823.406
				c-1.664-0.625-3.277-0.767-4.743-0.464c-2.35,0.481-4.319,2.101-5.52,4.694l-4.886,10.535l-9.502,20.338l-7.836-1.716
				c-0.064-0.017-0.128-0.031-0.191-0.045l-4.586-1.006l-5.953-1.315c-0.086-0.021-0.172-0.042-0.258-0.061l-12.877-2.856
				c-4.28-0.956-7.84,1.31-9.182,5.835c-1.34,4.518-0.232,10.539,2.853,15.548l12.751,20.901l8.741,14.519
				c0.052,0.089,0.104,0.179,0.157,0.266l1.125,1.882l-3.505,23.56c-0.021,0.118-0.04,0.237-0.058,0.357l-1.944,13.08
				c-0.779,5.242,1.169,11.796,4.945,16.669c1.849,2.394,3.962,4.153,6.075,5.16c0.393,0.187,0.785,0.348,1.176,0.48
				c0.003,0.001,0.006,0.003,0.01,0.004l0,0c1.393,0.476,2.767,0.609,4.049,0.362l20.027-4.019l8.119-1.709l8.036,9.304
				l19.796,23.239c1.623,1.924,3.405,3.354,5.19,4.218c2.008,0.973,4.02,1.227,5.81,0.656c0.223-0.071,0.439-0.154,0.651-0.248
				c0.001-0.001,0.001-0.002,0.003-0.003c0.002,0.001,0.003,0,0.005-0.001c3.56-1.604,5.427-6.479,4.758-12.537l-1.729-15.596
				c-0.017-0.144-0.034-0.286-0.052-0.43l-3.121-27.908l1.142-0.951c0.054-0.044,0.108-0.091,0.161-0.137l8.863-7.44l12.924-11.025
				c3.125-2.697,4.312-8.242,3.057-14.286c-1.258-6.034-4.742-11.492-8.99-14.08l-12.791-7.756c-0.085-0.053-0.17-0.102-0.256-0.151
				l-5.924-3.569l-4.555-2.74c-0.063-0.038-0.127-0.076-0.191-0.113l-7.797-4.667l-9.137-28.346l-4.701-14.424
				c-1.863-5.685-5.753-10.314-10.054-11.974C5255.807,823.428,5255.776,823.418,5255.748,823.406L5255.748,823.406z"/>
		</g>
		<g>
			<path class="st16" d="M5221.386,962.152c-1.165-0.549-2.323-1.555-3.298-2.916c-1.726-2.404-2.583-5.505-2.211-8.004
				l1.949-13.125c0.172-1.153,0.596-2.115,1.229-2.788l0.131-0.14c3.152-3.344,10.219-10.257,20.933-17.401
				c-2.704,0.899-5.375,1.897-7.995,3.012l-1.457,0.621c-0.964,0.41-2.079,0.335-3.193-0.159c-1.057-0.469-2.111-1.312-3.037-2.477
				c-1.857-2.336-2.836-5.517-2.514-8.142l-3.244-5.43c-1.244-2.075-1.854-4.516-1.65-6.614c0.202-2.1,1.194-3.625,2.688-4.136
				c0,0,1.358-0.464,1.626-0.553c-1.626,0.131-3.238,0.302-4.835,0.521l-0.462,0.063c-0.747,0.103-1.538-0.031-2.321-0.367
				c-1.446-0.619-2.867-1.923-3.943-3.7l-12.748-20.904c-1.543-2.506-2.094-5.526-1.423-7.795c0.673-2.269,2.452-3.397,4.591-2.911
				l34.63,7.791l15.739-33.807c0.975-2.111,2.963-2.928,5.127-2.104h0.001c2.165,0.824,4.129,3.154,5.068,6.013l15.139,46.691
				l8.315,5.007c0.446,0.271,0.874,0.6,1.276,0.978c0.172,0.051,0.345,0.11,0.517,0.183c0.271,0.111,0.544,0.25,0.814,0.414
				l8.279,5.022c0.416,0.254,0.815,0.558,1.194,0.908c0.147,0.045,0.295,0.099,0.442,0.16c0.271,0.113,0.543,0.252,0.812,0.416
				l12.783,7.811c2.122,1.301,3.865,4.032,4.494,7.043c0.629,3.012,0.037,5.775-1.525,7.123l-25.242,21.348l5.381,47.87
				c0.332,2.968-0.562,5.381-2.304,6.222c-0.985,0.476-2.146,0.401-3.308-0.156c-0.891-0.427-1.782-1.137-2.596-2.1l-30.443-35.458
				l-30.793,6.383C5223.178,962.726,5222.279,962.574,5221.386,962.152z"/>
			<path d="M5255.644,837.969l16.443,50.602l11.247,6.82l-6.118-1.75c-16.751-4.804-41.288-9.854-63.003-6.689l-0.469,0.066
				l-12.746-20.906l37.557,8.608L5255.644,837.969 M5285.938,896.973l8.275,5.058l-3.049,0.041
				c-16.702,0.165-41.042,2.189-62.19,11.391l-1.468,0.629l0.489-3.31l-5.354-8.977l0.83-0.283
				c13.447-4.627,35.196-9.32,62.344-4.572L5285.938,896.973 M5296.661,903.526l12.774,7.864l-27.396,23.141l5.871,51.781
				l-33.056-38.354l-33.44,7.062l1.957-13.171l0.131-0.14c6.736-7.17,31.978-31.603,72.957-38.144L5296.661,903.526
				 M5255.748,823.407c-4.332-1.63-8.311,0.015-10.26,4.229l-14.391,30.873l-31.699-6.999c-4.28-0.957-7.841,1.308-9.183,5.834
				c-1.341,4.518-0.234,10.539,2.852,15.549l12.751,20.901c1.62,2.681,3.635,4.826,5.766,6.258c0.457,2.89,1.533,5.856,3.133,8.526
				l1.61,2.692c0.429,3.967,2.052,8.147,4.571,11.551c-2.674,2.402-4.688,4.429-6.02,5.838l-0.146,0.155
				c-1.267,1.348-2.113,3.265-2.454,5.562l-1.944,13.08c-0.739,4.978,0.978,11.163,4.428,15.973c1.95,2.729,4.267,4.748,6.595,5.856
				c1.787,0.851,3.582,1.163,5.229,0.846l28.15-5.727l27.832,32.543c1.627,1.929,3.409,3.355,5.189,4.218
				c2.321,1.124,4.641,1.283,6.611,0.338c3.482-1.679,5.271-6.521,4.613-12.476l-4.898-43.932l23.09-19.551
				c3.125-2.697,4.312-8.242,3.057-14.286c-1.258-6.034-4.742-11.492-8.99-14.08l-12.791-7.756
				c-0.416-0.252-0.834-0.474-1.254-0.663c-0.39-0.294-0.789-0.564-1.195-0.81l-8.286-4.988c-0.438-0.265-0.88-0.495-1.323-0.691
				c-0.419-0.317-0.848-0.608-1.287-0.872l-5.379-3.218l-13.836-42.77C5264.012,829.688,5260.082,825.037,5255.748,823.407
				L5255.748,823.407z"/>
		</g>
	</g>
</g>
</svg>
