<?xml version="1.0" encoding="utf-8"?>
<!-- Generator: Adobe Illustrator 16.0.0, SVG Export Plug-In . SVG Version: 6.00 Build 0)  -->
<!DOCTYPE svg PUBLIC "-//W3C//DTD SVG 1.1//EN" "http://www.w3.org/Graphics/SVG/1.1/DTD/svg11.dtd">
<svg version="1.1" id="Layer_1" xmlns="http://www.w3.org/2000/svg" xmlns:xlink="http://www.w3.org/1999/xlink" x="0px" y="0px"
	 width="500px" height="500px" viewBox="0 0 500 500" enable-background="new 0 0 500 500" xml:space="preserve">
<path opacity="0.4" fill="#C52026" enable-background="new    " d="M479.756,217.916H354.863c-8.332,0-15.09-9.476-15.09-21.174
	c0-11.695,6.758-21.174,15.09-21.174h124.893c8.33,0,15.085-9.481,15.085-21.179c0-11.695-6.755-21.177-15.085-21.177h-49.885
	c8.332,0,15.09-9.479,15.09-21.171c0-11.698-6.758-21.179-15.09-21.179h-82.684c-8.33,0-15.084-9.481-15.084-21.174
	c0-11.7,6.754-21.176,15.084-21.176h56.739c8.334,0,15.089-9.481,15.089-21.177c0-11.695-6.755-21.179-15.089-21.179H36.168
	c-8.332,0-15.088,9.484-15.088,21.179c0,11.695,6.756,21.177,15.088,21.177h25.944c-8.333,0-15.084,9.476-15.084,21.176
	c0,11.693,6.752,21.174,15.084,21.174h59.455c8.337,0,15.089,9.481,15.089,21.179c0,11.692-6.752,21.171-15.089,21.171H62.113
	c-8.333,0-15.084,9.481-15.084,21.177c0,11.697,6.752,21.179,15.084,21.179h121.311c8.332,0,15.089,9.479,15.089,21.174
	c0,11.698-6.757,21.174-15.089,21.174H62.113c-8.333,0-15.084,9.484-15.084,21.18c0,11.696,6.752,21.173,15.084,21.173h33.521
	c8.332,0,15.084,9.48,15.084,21.174c0,11.699-6.752,21.18-15.084,21.18H36.168c-8.332,0-15.088,9.483-15.088,21.177
	c0,11.698,6.756,21.171,15.088,21.171h417.645c8.334,0,15.09-9.473,15.09-21.171c0-11.692-6.756-21.177-15.09-21.177h-49.886
	c8.334,0,15.089-9.48,15.089-21.18c0-11.692-6.755-21.174-15.089-21.174h75.828c8.33,0,15.085-9.479,15.085-21.173
	C494.84,227.401,488.086,217.916,479.756,217.916z"/>
<g>
	<g>
		<line fill="none" stroke="#FFFFFF" stroke-width="2" stroke-miterlimit="10" x1="402.603" y1="89.45" x2="402.603" y2="81.528"/>
		<line fill="none" stroke="#FFFFFF" stroke-width="2" stroke-miterlimit="10" x1="398.644" y1="85.49" x2="406.557" y2="85.49"/>
		<line fill="none" stroke="#FFFFFF" stroke-width="2" stroke-miterlimit="10" x1="413.778" y1="85.49" x2="448.717" y2="85.49"/>
		<line fill="none" stroke="#FFFFFF" stroke-width="2" stroke-miterlimit="10" x1="452.911" y1="85.49" x2="461.294" y2="85.49"/>
	</g>
	<g>
		<line fill="none" stroke="#FFFFFF" stroke-width="2" stroke-miterlimit="10" x1="54.372" y1="187.522" x2="54.372" y2="179.601"/>
		<line fill="none" stroke="#FFFFFF" stroke-width="2" stroke-miterlimit="10" x1="50.412" y1="183.561" x2="58.331" y2="183.561"/>
		
			<line fill="none" stroke="#FFFFFF" stroke-width="2" stroke-miterlimit="10" x1="65.552" y1="183.561" x2="100.491" y2="183.561"/>
		
			<line fill="none" stroke="#FFFFFF" stroke-width="2" stroke-miterlimit="10" x1="104.682" y1="183.561" x2="113.073" y2="183.561"/>
	</g>
	<g>
		<line fill="none" stroke="#FFFFFF" stroke-width="2" stroke-miterlimit="10" x1="58.938" y1="105.169" x2="58.938" y2="97.247"/>
		<line fill="none" stroke="#FFFFFF" stroke-width="2" stroke-miterlimit="10" x1="54.973" y1="101.207" x2="62.897" y2="101.207"/>
		
			<line fill="none" stroke="#FFFFFF" stroke-width="2" stroke-miterlimit="10" x1="70.118" y1="101.207" x2="105.056" y2="101.207"/>
		
			<line fill="none" stroke="#FFFFFF" stroke-width="2" stroke-miterlimit="10" x1="109.248" y1="101.207" x2="117.631" y2="101.207"/>
	</g>
	<g>
		<line fill="none" stroke="#FFFFFF" stroke-width="2" stroke-miterlimit="10" x1="10.415" y1="141.358" x2="10.415" y2="133.441"/>
		<line fill="none" stroke="#FFFFFF" stroke-width="2" stroke-miterlimit="10" x1="6.458" y1="137.4" x2="14.377" y2="137.4"/>
		<line fill="none" stroke="#FFFFFF" stroke-width="2" stroke-miterlimit="10" x1="21.598" y1="137.4" x2="56.535" y2="137.4"/>
		<line fill="none" stroke="#FFFFFF" stroke-width="2" stroke-miterlimit="10" x1="60.731" y1="137.4" x2="69.115" y2="137.4"/>
	</g>
	<g>
		
			<line fill="none" stroke="#FFFFFF" stroke-width="2" stroke-miterlimit="10" x1="405.565" y1="190.555" x2="405.565" y2="182.636"/>
		
			<line fill="none" stroke="#FFFFFF" stroke-width="2" stroke-miterlimit="10" x1="401.604" y1="186.596" x2="409.521" y2="186.596"/>
		
			<line fill="none" stroke="#FFFFFF" stroke-width="2" stroke-miterlimit="10" x1="416.744" y1="186.596" x2="451.683" y2="186.596"/>
		
			<line fill="none" stroke="#FFFFFF" stroke-width="2" stroke-miterlimit="10" x1="455.871" y1="186.596" x2="464.259" y2="186.596"/>
	</g>
	<g>
		<line fill="none" stroke="#FFFFFF" stroke-width="2" stroke-miterlimit="10" x1="104.875" y1="53.582" x2="139.812" y2="53.582"/>
		<line fill="none" stroke="#FFFFFF" stroke-width="2" stroke-miterlimit="10" x1="142.609" y1="53.582" x2="146.801" y2="53.582"/>
		<line fill="none" stroke="#FFFFFF" stroke-width="2" stroke-miterlimit="10" x1="148.897" y1="53.582" x2="153.091" y2="53.582"/>
	</g>
	<g>
		<line fill="none" stroke="#FFFFFF" stroke-width="2" stroke-miterlimit="10" x1="21.115" y1="211.398" x2="56.058" y2="211.398"/>
		<line fill="none" stroke="#FFFFFF" stroke-width="2" stroke-miterlimit="10" x1="58.851" y1="211.398" x2="63.045" y2="211.398"/>
		<line fill="none" stroke="#FFFFFF" stroke-width="2" stroke-miterlimit="10" x1="65.14" y1="211.398" x2="69.333" y2="211.398"/>
	</g>
	<g>
		<line fill="none" stroke="#FFFFFF" stroke-width="2" stroke-miterlimit="10" x1="366.809" y1="51.235" x2="362.115" y2="55.929"/>
		<line fill="none" stroke="#FFFFFF" stroke-width="2" stroke-miterlimit="10" x1="366.809" y1="55.929" x2="362.115" y2="51.235"/>
	</g>
	<g>
		<line fill="none" stroke="#FFFFFF" stroke-width="2" stroke-miterlimit="10" x1="203.227" y1="33.746" x2="198.533" y2="38.441"/>
		<line fill="none" stroke="#FFFFFF" stroke-width="2" stroke-miterlimit="10" x1="203.227" y1="38.441" x2="198.538" y2="33.746"/>
	</g>
	<g>
		<line fill="none" stroke="#FFFFFF" stroke-width="2" stroke-miterlimit="10" x1="102.269" y1="73.025" x2="97.576" y2="77.719"/>
		<line fill="none" stroke="#FFFFFF" stroke-width="2" stroke-miterlimit="10" x1="102.269" y1="77.719" x2="97.576" y2="73.025"/>
	</g>
	<g>
		<line fill="none" stroke="#FFFFFF" stroke-width="2" stroke-miterlimit="10" x1="99.925" y1="135.79" x2="95.229" y2="140.484"/>
		<line fill="none" stroke="#FFFFFF" stroke-width="2" stroke-miterlimit="10" x1="99.925" y1="140.484" x2="95.229" y2="135.79"/>
	</g>
	<g>
		<line fill="none" stroke="#FFFFFF" stroke-width="2" stroke-miterlimit="10" x1="69.933" y1="233.479" x2="65.236" y2="238.181"/>
		<line fill="none" stroke="#FFFFFF" stroke-width="2" stroke-miterlimit="10" x1="69.933" y1="238.181" x2="65.236" y2="233.484"/>
	</g>
	<g>
		
			<line fill="none" stroke="#FFFFFF" stroke-width="2" stroke-miterlimit="10" x1="487.977" y1="133.446" x2="483.282" y2="138.138"/>
		
			<line fill="none" stroke="#FFFFFF" stroke-width="2" stroke-miterlimit="10" x1="487.977" y1="138.138" x2="483.282" y2="133.446"/>
	</g>
	<g>
		
			<line fill="none" stroke="#FFFFFF" stroke-width="2" stroke-miterlimit="10" x1="444.889" y1="205.527" x2="440.19" y2="210.221"/>
		
			<line fill="none" stroke="#FFFFFF" stroke-width="2" stroke-miterlimit="10" x1="444.889" y1="210.221" x2="440.201" y2="205.527"/>
	</g>
</g>
<g>
	<path fill="#FFFFFF" d="M367.117,327.106l5.529-11.542l6.012,11.542l3.525,0.721c0,0-16.43,1.122-23.082,5.771l-5.209-4.809
		L367.117,327.106z"/>
	<path fill="#FFFFFF" d="M382.585,327.827l3.047,0.4c0,0-13.385,4.729-21.72,10.658l-2.244-2.645
		C361.668,336.242,369.842,330.632,382.585,327.827z"/>
	<path fill="#FFFFFF" d="M386.354,328.469l4.969,0.48l-9.139,9.056l2.086,13.145l-11.302-6.57l-11.3,6.57v-4.487
		C361.668,346.661,371.525,335.521,386.354,328.469z"/>
</g>
<g>
	<path fill="#F1F2F2" d="M44.528,139.802l9.32-12.065l4.124,14.942l3.929,1.72c0,0-19.419-2.79-28.328,0.967l-4.87-6.901
		L44.528,139.802z"/>
	<path fill="#F1F2F2" d="M62.368,144.499l3.448,1.226c0,0-16.771,2.171-27.96,7.002l-1.954-3.641
		C35.902,149.086,46.823,144.589,62.368,144.499z"/>
	<path fill="#F1F2F2" d="M66.596,146.185l5.669,1.799l-12.902,8.271l-0.85,15.832l-11.526-10.474l-14.802,4.838l1.119-5.228
		C33.304,161.224,47.565,150.704,66.596,146.185z"/>
</g>
<g>
	<g>
		<line fill="none" stroke="#FFFFFF" stroke-width="2" stroke-miterlimit="10" x1="43.372" y1="270.521" x2="43.372" y2="262.602"/>
		<line fill="none" stroke="#FFFFFF" stroke-width="2" stroke-miterlimit="10" x1="39.412" y1="266.561" x2="47.331" y2="266.561"/>
		<line fill="none" stroke="#FFFFFF" stroke-width="2" stroke-miterlimit="10" x1="54.552" y1="266.561" x2="89.491" y2="266.561"/>
		
			<line fill="none" stroke="#FFFFFF" stroke-width="2" stroke-miterlimit="10" x1="93.682" y1="266.561" x2="102.073" y2="266.561"/>
	</g>
	<g>
		
			<line fill="none" stroke="#FFFFFF" stroke-width="2" stroke-miterlimit="10" x1="431.54" y1="248.146" x2="466.483" y2="248.146"/>
		
			<line fill="none" stroke="#FFFFFF" stroke-width="2" stroke-miterlimit="10" x1="469.281" y1="248.146" x2="473.473" y2="248.146"/>
		
			<line fill="none" stroke="#FFFFFF" stroke-width="2" stroke-miterlimit="10" x1="475.565" y1="248.146" x2="479.759" y2="248.146"/>
	</g>
	<g>
		<line fill="none" stroke="#FFFFFF" stroke-width="2" stroke-miterlimit="10" x1="10.115" y1="294.398" x2="45.058" y2="294.398"/>
		<line fill="none" stroke="#FFFFFF" stroke-width="2" stroke-miterlimit="10" x1="47.851" y1="294.398" x2="52.045" y2="294.398"/>
		<line fill="none" stroke="#FFFFFF" stroke-width="2" stroke-miterlimit="10" x1="54.14" y1="294.398" x2="58.333" y2="294.398"/>
	</g>
	<g>
		
			<line fill="none" stroke="#FFFFFF" stroke-width="2" stroke-miterlimit="10" x1="192.227" y1="116.746" x2="187.533" y2="121.441"/>
		
			<line fill="none" stroke="#FFFFFF" stroke-width="2" stroke-miterlimit="10" x1="192.227" y1="121.441" x2="187.537" y2="116.746"/>
	</g>
	<g>
		<line fill="none" stroke="#FFFFFF" stroke-width="2" stroke-miterlimit="10" x1="58.933" y1="316.479" x2="54.236" y2="321.181"/>
		<line fill="none" stroke="#FFFFFF" stroke-width="2" stroke-miterlimit="10" x1="58.933" y1="321.181" x2="54.236" y2="316.484"/>
	</g>
</g>
<g>
	<g>
		<g>
			<polygon fill="#E08743" points="116.09,276.814 247.984,227.753 247.984,63.936 116.09,112.993 			"/>
			<polygon fill="#EBEBEC" points="162.83,147.699 162.83,95.609 195.228,83.558 195.228,135.206 			"/>
			<polygon fill="#FAAA6A" points="2.712,70.42 134.604,21.36 247.984,63.936 116.09,112.993 			"/>
			<polygon fill="#F9A45A" points="116.09,276.814 2.712,234.241 2.712,70.42 116.09,112.993 			"/>
			<g>
				<path fill="#BE6736" d="M186.018,40.667c0-0.001-7.566,4.052-19.19,9.447c-2.903,1.356-6.048,2.825-9.403,4.306
					c-3.351,1.497-6.872,3.102-10.556,4.659c-3.684,1.562-7.458,3.252-11.349,4.833c-3.885,1.601-7.828,3.225-11.772,4.85
					c-3.969,1.566-7.938,3.132-11.845,4.673c-3.894,1.568-7.789,2.961-11.525,4.392c-3.735,1.433-7.383,2.726-10.834,3.966
					c-3.446,1.259-6.729,2.386-9.762,3.419C67.664,89.383,59.4,91.707,59.4,91.707c0,0.001,7.565-4.057,19.189-9.454
					c2.901-1.358,6.048-2.824,9.404-4.306c3.348-1.5,6.872-3.099,10.557-4.657c3.683-1.561,7.454-3.258,11.349-4.83
					c3.883-1.599,7.829-3.223,11.774-4.847c3.969-1.565,7.938-3.13,11.844-4.671c3.9-1.559,7.792-2.96,11.528-4.388
					c3.733-1.434,7.385-2.719,10.834-3.965c3.445-1.261,6.73-2.383,9.762-3.42C177.758,42.996,186.018,40.667,186.018,40.667z"/>
			</g>
			<polygon fill="#C4C6C8" points="49.452,53.036 81.843,40.984 195.228,83.558 162.83,95.609 			"/>
		</g>
		<g>
			<g>
				<g>
					<g>
						<g>
							<path fill="#291112" d="M17.378,231.524c-1.338-0.488-2.011-0.737-3.346-1.222c0-16.673,0-25.014,0-41.684
								c1.335,0.484,2.008,0.727,3.346,1.215C17.378,206.506,17.378,214.851,17.378,231.524z"/>
						</g>
						<g>
							<path fill="#291112" d="M25.718,226.334c-2.668-0.973-4.005-1.46-6.675-2.433c0-13.383,0-20.073,0-33.455
								c2.67,0.974,4.007,1.457,6.675,2.431C25.718,206.258,25.718,212.952,25.718,226.334z"/>
						</g>
						<g>
							<path fill="#291112" d="M27.951,227.149c-0.444-0.161-0.667-0.243-1.112-0.407c0-13.384,0-20.075,0-33.458
								c0.444,0.16,0.667,0.245,1.112,0.407C27.951,207.07,27.951,213.764,27.951,227.149z"/>
						</g>
						<g>
							<path fill="#291112" d="M40.377,231.679c-2.672-0.972-4.004-1.454-6.677-2.429c0-13.386,0-20.082,0-33.463
								c2.673,0.972,4.005,1.462,6.677,2.434C40.377,211.602,40.377,218.296,40.377,231.679z"/>
						</g>
						<g>
							<path fill="#291112" d="M32.403,228.771c-1.333-0.486-2.009-0.727-3.345-1.21c0-13.388,0-20.084,0-33.465
								c1.336,0.488,2.013,0.733,3.345,1.218C32.403,208.694,32.403,215.387,32.403,228.771z"/>
						</g>
						<g>
							<path fill="#291112" d="M9.767,228.748c-0.442-0.163-0.667-0.243-1.111-0.407c0-16.671,0-25.012,0-41.685
								c0.445,0.159,0.669,0.24,1.111,0.404C9.767,203.734,9.767,212.078,9.767,228.748z"/>
						</g>
						<g>
							<path fill="#291112" d="M12.919,229.897c-0.89-0.325-1.334-0.489-2.223-0.814c0-16.673,0-25.014,0-41.69
								c0.889,0.325,1.333,0.492,2.223,0.815C12.919,204.884,12.919,213.224,12.919,229.897z"/>
						</g>
						<g>
							<path fill="#291112" d="M45.388,233.502c-1.332-0.485-2.005-0.726-3.339-1.213c0-13.381,0-20.077,0-33.458
								c1.334,0.489,2.007,0.732,3.339,1.22C45.388,213.429,45.388,220.123,45.388,233.502z"/>
						</g>
						<g>
							<path fill="#291112" d="M49.653,235.062c-0.445-0.163-0.661-0.242-1.104-0.403c0-13.386,0-20.077,0-33.458
								c0.443,0.16,0.659,0.241,1.104,0.402C49.653,214.987,49.653,221.678,49.653,235.062z"/>
						</g>
						<g>
							<path fill="#291112" d="M52.992,236.281c-0.887-0.326-1.336-0.487-2.226-0.813c0-13.381,0-20.081,0-33.467
								c0.889,0.331,1.339,0.492,2.226,0.815C52.992,216.199,52.992,222.896,52.992,236.281z"/>
						</g>
						<g>
							<path fill="#291112" d="M57.821,238.036c-1.337-0.483-2.009-0.732-3.346-1.217c0-13.386,0-20.074,0-33.457
								c1.337,0.489,2.009,0.725,3.346,1.213C57.821,217.956,57.821,224.655,57.821,238.036z"/>
						</g>
						<g>
							<path fill="#291112" d="M63.007,239.932c-1.781-0.645-2.669-0.975-4.446-1.622c0-13.383,0-20.073,0-33.451
								c1.776,0.646,2.665,0.972,4.446,1.617C63.007,219.859,63.007,226.546,63.007,239.932z"/>
						</g>
						<g>
							<path fill="#291112" d="M72.845,251.75c-3.116-1.135-4.676-1.709-7.793-2.842c0-16.672,0-25.018,0-41.689
								c3.118,1.137,4.678,1.705,7.793,2.84C72.845,226.732,72.845,235.076,72.845,251.75z"/>
						</g>
					</g>
					<g>
						<path fill="#291112" d="M18.931,230.98c0-0.156,0-0.23,0-0.385c0.182,0.063,0.27,0.094,0.453,0.163c0-1.502,0-2.25,0-3.752
							c-0.183-0.049-0.277-0.069-0.458-0.125c0-0.104,0.005-0.154,0.005-0.261c0.126-0.002,0.242-0.031,0.342-0.056
							c0.096-0.025,0.188-0.049,0.266-0.092c0.085,0.033,0.128,0.038,0.214,0.069c0,1.736,0,2.604,0,4.342
							c0.172,0.063,0.26,0.104,0.432,0.164c0,0.162,0,0.231,0,0.394C19.682,231.257,19.43,231.164,18.931,230.98z"/>
						<path fill="#291112" d="M22.246,229.957c-0.008,0-0.182,0.167-0.288,0.203c-0.106,0.035-0.21,0.035-0.325-0.004
							c-0.235-0.088-0.424-0.307-0.568-0.615c-0.143-0.315-0.209-0.681-0.209-1.129c0-0.457,0.078-0.799,0.23-1.01
							c0.16-0.208,0.377-0.273,0.65-0.177c0.301,0.112,0.521,0.383,0.658,0.794c0.138,0.415,0.211,1.032,0.211,1.831
							c0,0.842-0.073,1.45-0.233,1.823c-0.16,0.369-0.409,0.489-0.725,0.377c-0.205-0.08-0.366-0.212-0.498-0.431
							c-0.129-0.218-0.196-0.468-0.196-0.748c0.131,0.05,0.196,0.068,0.329,0.117c0.016,0.191,0.054,0.344,0.116,0.454
							c0.065,0.118,0.156,0.204,0.264,0.243c0.185,0.068,0.321-0.044,0.42-0.336C22.18,231.056,22.246,229.957,22.246,229.957z
							 M22.225,229.533c0-0.014,0.008-0.014,0.008-0.023c0.005-0.155,0.005-0.244,0.005-0.317c0-0.435-0.053-0.79-0.138-1.056
							c-0.088-0.263-0.218-0.432-0.394-0.494c-0.158-0.058-0.284,0-0.37,0.155c-0.078,0.16-0.12,0.405-0.12,0.748
							c0,0.348,0.036,0.629,0.12,0.845c0.083,0.211,0.204,0.336,0.364,0.399c0.093,0.035,0.189,0.026,0.283-0.014
							C22.068,229.727,22.148,229.647,22.225,229.533z"/>
						<path fill="#291112" d="M23.685,230.236c0.012-0.068-0.3-0.454-0.377-0.671c-0.083-0.218-0.128-0.464-0.128-0.696
							c0-0.329,0.082-0.567,0.232-0.713c0.156-0.144,0.361-0.176,0.611-0.085c0.254,0.092,0.465,0.267,0.613,0.512
							c0.161,0.251,0.23,0.538,0.23,0.848c0,0.229-0.039,0.418-0.136,0.588c-0.094,0.168-0.41,0.392-0.414,0.426
							c-0.014,0.071,0.364,0.485,0.471,0.748c0.103,0.256,0.159,0.534,0.159,0.814c0,0.355-0.101,0.622-0.275,0.795
							c-0.183,0.174-0.4,0.208-0.676,0.111c-0.278-0.107-0.5-0.297-0.668-0.592c-0.172-0.297-0.252-0.641-0.252-1.022
							c0-0.235,0.049-0.437,0.151-0.608C23.326,230.521,23.677,230.284,23.685,230.236z M24.001,230.565
							c-0.076-0.014-0.333,0.199-0.419,0.346c-0.09,0.142-0.137,0.329-0.137,0.541c0,0.244,0.056,0.466,0.157,0.664
							c0.112,0.201,0.245,0.324,0.399,0.387c0.166,0.061,0.299,0.024,0.406-0.09c0.103-0.116,0.149-0.3,0.149-0.546
							c0-0.222-0.042-0.436-0.132-0.645C24.332,231.012,24.107,230.589,24.001,230.565z M24.011,230.115
							c0.072,0.018,0.298-0.2,0.378-0.332c0.075-0.131,0.121-0.283,0.121-0.478c0-0.186-0.049-0.372-0.146-0.528
							c-0.095-0.157-0.207-0.263-0.353-0.318c-0.146-0.05-0.262-0.031-0.347,0.063c-0.088,0.094-0.131,0.243-0.131,0.454
							c0,0.183,0.038,0.365,0.114,0.547C23.728,229.709,23.926,230.099,24.011,230.115z"/>
						<path fill="#291112" d="M25.593,233.484c0.437-1.582,0.65-2.373,1.087-3.965c-0.505-0.182-0.758-0.27-1.262-0.457
							c0-0.167-0.008-0.235-0.008-0.401c0.66,0.242,0.991,0.364,1.651,0.605c0,0.119,0,0.177,0,0.291
							c-0.436,1.634-0.646,2.443-1.08,4.075C25.826,233.574,25.749,233.543,25.593,233.484z"/>
						<path fill="#291112" d="M28.711,232.205c0-0.896,0.07-1.507,0.21-1.813c0.134-0.309,0.371-0.41,0.696-0.291
							c0.331,0.123,0.565,0.397,0.698,0.806c0.138,0.41,0.21,1.063,0.21,1.958c0,0.896-0.077,1.498-0.21,1.808
							c-0.14,0.311-0.371,0.401-0.702,0.28c-0.328-0.119-0.555-0.38-0.692-0.792C28.781,233.747,28.711,233.1,28.711,232.205z
							 M29.078,232.348c0,0.78,0.042,1.322,0.123,1.633c0.079,0.31,0.222,0.5,0.417,0.575c0.199,0.07,0.333-0.017,0.414-0.266
							c0.074-0.25,0.111-0.774,0.111-1.564c0-0.789-0.037-1.329-0.111-1.638c-0.081-0.305-0.215-0.492-0.414-0.567
							c-0.194-0.071-0.337,0.003-0.417,0.256C29.12,231.031,29.078,231.559,29.078,232.348z"/>
						<path fill="#291112" d="M31.282,235.485c0-0.154-0.001-0.236-0.001-0.392c0.178,0.068,0.267,0.09,0.451,0.161
							c0-1.496,0-2.245,0-3.748c-0.184-0.054-0.273-0.07-0.451-0.12c0-0.107,0-0.166,0-0.275c0.124-0.004,0.239-0.02,0.334-0.04
							c0.093-0.026,0.191-0.055,0.271-0.098c0.083,0.032,0.128,0.043,0.21,0.074c0,1.74,0,2.603,0,4.344
							c0.171,0.063,0.257,0.098,0.431,0.162c0,0.15,0.003,0.232,0.003,0.386C32.03,235.756,31.786,235.669,31.282,235.485z"/>
						<path fill="#291112" d="M34.337,236.601c0-0.161-0.003-0.244-0.003-0.404c0.059-0.196,0.143-0.4,0.249-0.594
							c0.115-0.198,0.303-0.459,0.561-0.807c0.013-0.026,0.033-0.049,0.063-0.089c0.337-0.472,0.529-0.883,0.529-1.231
							c0-0.221-0.045-0.404-0.135-0.574c-0.086-0.16-0.208-0.281-0.357-0.338c-0.169-0.057-0.303-0.02-0.389,0.116
							c-0.091,0.128-0.126,0.343-0.136,0.662c-0.136-0.049-0.203-0.066-0.336-0.115c0.01-0.453,0.089-0.768,0.233-0.938
							c0.146-0.176,0.368-0.213,0.66-0.102c0.249,0.093,0.451,0.261,0.598,0.514c0.146,0.254,0.222,0.547,0.222,0.891
							c0,0.4-0.218,0.889-0.654,1.47c-0.037,0.048-0.07,0.091-0.087,0.11c-0.21,0.291-0.37,0.514-0.465,0.678
							c-0.093,0.161-0.166,0.293-0.211,0.431c0.555,0.21,0.842,0.306,1.404,0.514c0,0.173,0.004,0.269,0.004,0.442
							C35.393,236.984,35.036,236.856,34.337,236.601z"/>
						<path fill="#291112" d="M37.154,235.144c0.014-0.071-0.297-0.455-0.382-0.672c-0.085-0.226-0.125-0.454-0.125-0.689
							c0-0.33,0.071-0.568,0.226-0.714c0.152-0.15,0.362-0.174,0.608-0.082c0.255,0.088,0.47,0.269,0.625,0.516
							c0.158,0.245,0.228,0.524,0.228,0.833c0,0.229-0.042,0.426-0.135,0.597c-0.092,0.162-0.419,0.385-0.423,0.422
							c-0.014,0.065,0.365,0.496,0.471,0.754c0.109,0.262,0.165,0.529,0.165,0.81c0,0.36-0.093,0.617-0.271,0.791
							c-0.18,0.172-0.407,0.2-0.681,0.103c-0.275-0.103-0.502-0.284-0.671-0.583c-0.174-0.289-0.25-0.632-0.25-1.016
							c0-0.237,0.05-0.447,0.147-0.62C36.785,235.419,37.14,235.184,37.154,235.144z M37.475,235.472
							c-0.081-0.013-0.336,0.209-0.426,0.355c-0.093,0.143-0.14,0.329-0.14,0.543c0,0.239,0.055,0.467,0.161,0.662
							c0.105,0.195,0.241,0.315,0.406,0.376c0.158,0.061,0.293,0.035,0.4-0.079c0.102-0.114,0.155-0.306,0.155-0.551
							c0-0.221-0.048-0.439-0.133-0.643C37.803,235.924,37.576,235.496,37.475,235.472z M37.477,235.037
							c0.068,0.018,0.299-0.213,0.378-0.341c0.077-0.135,0.121-0.295,0.121-0.485c0-0.192-0.054-0.367-0.146-0.52
							c-0.094-0.156-0.203-0.269-0.353-0.321c-0.141-0.054-0.257-0.035-0.341,0.059c-0.087,0.092-0.138,0.242-0.138,0.457
							c0,0.184,0.033,0.37,0.116,0.555C37.19,234.626,37.397,235.014,37.477,235.037z"/>
						<path fill="#291112" d="M39.953,238.646c0-0.164-0.003-0.243-0.003-0.409c0.057-0.19,0.143-0.387,0.249-0.586
							c0.111-0.197,0.293-0.463,0.547-0.81c0.023-0.023,0.036-0.052,0.064-0.093c0.356-0.463,0.533-0.89,0.533-1.23
							c0-0.223-0.041-0.414-0.129-0.581c-0.085-0.159-0.213-0.266-0.366-0.318c-0.169-0.063-0.289-0.031-0.377,0.101
							c-0.086,0.131-0.138,0.353-0.146,0.671c-0.131-0.048-0.196-0.07-0.329-0.119c0.005-0.452,0.09-0.769,0.233-0.943
							c0.149-0.173,0.364-0.205,0.656-0.096c0.249,0.092,0.451,0.262,0.6,0.515c0.144,0.25,0.225,0.551,0.225,0.89
							c0,0.4-0.22,0.893-0.665,1.475c-0.035,0.05-0.06,0.085-0.08,0.107c-0.218,0.271-0.369,0.516-0.467,0.673
							c-0.093,0.157-0.167,0.297-0.215,0.435c0.563,0.208,0.846,0.315,1.406,0.519c0,0.174,0.014,0.264,0.014,0.44
							C41,239.03,40.652,238.9,39.953,238.646z"/>
						<path fill="#291112" d="M42.186,237.117c0-0.893,0.066-1.505,0.202-1.813c0.136-0.306,0.367-0.409,0.692-0.29
							c0.329,0.121,0.564,0.388,0.703,0.795c0.137,0.415,0.207,1.077,0.207,1.971c0,0.896-0.07,1.483-0.207,1.797
							c-0.139,0.309-0.371,0.402-0.699,0.284c-0.323-0.117-0.561-0.375-0.7-0.783C42.246,238.665,42.186,238.01,42.186,237.117z
							 M42.551,237.247c0,0.786,0.037,1.338,0.115,1.644c0.079,0.306,0.219,0.506,0.414,0.578c0.2,0.07,0.338-0.014,0.417-0.272
							c0.079-0.25,0.112-0.77,0.112-1.559c0-0.794-0.033-1.33-0.112-1.642c-0.08-0.302-0.217-0.487-0.417-0.56
							c-0.195-0.072-0.335,0.009-0.414,0.262C42.588,235.949,42.551,236.464,42.551,237.247z"/>
						<path fill="#291112" d="M44.499,239.217c0.133,0.047,0.195,0.07,0.325,0.115c0.006,0.257,0.045,0.467,0.129,0.626
							c0.074,0.166,0.193,0.276,0.336,0.326c0.174,0.065,0.308,0,0.406-0.201c0.097-0.196,0.151-0.505,0.151-0.925
							c0-0.351-0.038-0.632-0.126-0.848c-0.097-0.217-0.221-0.365-0.39-0.429c-0.107-0.039-0.203-0.024-0.281,0.019
							c-0.078,0.053-0.145,0.136-0.19,0.272c-0.117-0.065-0.168-0.094-0.289-0.162c0.058-0.925,0.076-1.395,0.125-2.322
							c0.527,0.198,0.786,0.286,1.311,0.479c-0.008,0.155-0.02,0.238-0.026,0.4c-0.399-0.149-0.595-0.221-0.992-0.363
							c-0.022,0.554-0.034,0.819-0.057,1.372c0.051-0.06,0.113-0.086,0.175-0.094c0.073-0.013,0.159-0.004,0.251,0.032
							c0.276,0.102,0.495,0.302,0.641,0.612c0.146,0.308,0.213,0.681,0.213,1.156c0,0.544-0.085,0.938-0.26,1.18
							c-0.167,0.237-0.402,0.292-0.703,0.185c-0.237-0.083-0.417-0.238-0.553-0.485c-0.129-0.238-0.195-0.531-0.195-0.882
							C44.499,239.255,44.499,239.238,44.499,239.217z"/>
						<path fill="#291112" d="M46.669,238.757c0-0.893,0.075-1.506,0.213-1.812c0.137-0.313,0.364-0.415,0.693-0.295
							c0.329,0.12,0.557,0.396,0.694,0.804c0.137,0.409,0.215,1.071,0.215,1.968c0,0.892-0.083,1.491-0.218,1.799
							c-0.135,0.312-0.363,0.402-0.692,0.28c-0.329-0.121-0.565-0.378-0.701-0.783C46.739,240.306,46.669,239.646,46.669,238.757z
							 M47.041,238.88c0,0.79,0.041,1.34,0.121,1.647c0.079,0.31,0.21,0.498,0.413,0.573c0.196,0.073,0.333-0.009,0.412-0.263
							c0.076-0.242,0.113-0.769,0.113-1.558c0-0.797-0.037-1.339-0.113-1.647c-0.076-0.298-0.216-0.492-0.412-0.563
							c-0.203-0.075-0.334,0.012-0.412,0.265C47.084,237.588,47.041,238.099,47.041,238.88z"/>
						<path fill="#291112" d="M50.349,242.443c0-0.155,0.004-0.235,0.004-0.391c0.181,0.068,0.271,0.103,0.454,0.164
							c0-1.498,0-2.248,0-3.747c-0.183-0.055-0.267-0.077-0.454-0.125c0-0.112,0-0.171,0-0.278c0.125-0.002,0.236-0.018,0.328-0.037
							c0.106-0.028,0.197-0.055,0.277-0.097c0.084,0.029,0.129,0.047,0.211,0.078c0,1.74,0,2.601,0,4.339
							c0.174,0.063,0.263,0.094,0.436,0.162c0,0.156,0.002,0.231,0.002,0.392C51.104,242.719,50.853,242.627,50.349,242.443z"/>
						<path fill="#291112" d="M53.662,241.408c-0.004,0-0.165,0.176-0.273,0.215c-0.108,0.034-0.22,0.02-0.335-0.021
							c-0.238-0.087-0.423-0.28-0.563-0.59c-0.142-0.315-0.215-0.688-0.215-1.134c0-0.466,0.077-0.813,0.236-1.018
							c0.159-0.21,0.369-0.27,0.64-0.172c0.302,0.11,0.528,0.38,0.663,0.79c0.143,0.417,0.213,1.032,0.213,1.832
							c0,0.834-0.07,1.445-0.235,1.82c-0.165,0.372-0.404,0.491-0.716,0.376c-0.207-0.074-0.371-0.217-0.498-0.433
							c-0.134-0.221-0.194-0.475-0.2-0.754c0.134,0.05,0.195,0.074,0.329,0.125c0.014,0.187,0.054,0.352,0.12,0.464
							c0.063,0.118,0.146,0.194,0.258,0.234c0.189,0.072,0.324-0.054,0.419-0.343C53.597,242.516,53.662,241.408,53.662,241.408z
							 M53.65,240.993c0-0.008,0.007-0.021,0.007-0.031c0.004-0.15,0-0.25,0-0.319c0-0.439-0.046-0.781-0.133-1.042
							c-0.089-0.266-0.219-0.437-0.39-0.498c-0.162-0.058-0.291-0.007-0.375,0.151c-0.081,0.157-0.125,0.409-0.125,0.758
							c0,0.346,0.044,0.621,0.125,0.83c0.084,0.219,0.205,0.349,0.364,0.405c0.088,0.037,0.182,0.031,0.276-0.014
							C53.486,241.191,53.579,241.111,53.65,240.993z"/>
						<path fill="#291112" d="M55.109,241.696c0.011-0.071-0.296-0.457-0.376-0.675c-0.085-0.232-0.121-0.453-0.121-0.694
							c0-0.327,0.074-0.563,0.223-0.705c0.156-0.152,0.357-0.188,0.609-0.094c0.252,0.094,0.467,0.268,0.621,0.516
							c0.152,0.247,0.227,0.534,0.227,0.84c0,0.229-0.048,0.427-0.137,0.597c-0.09,0.168-0.414,0.386-0.419,0.42
							c-0.009,0.073,0.367,0.494,0.47,0.757c0.11,0.261,0.158,0.523,0.158,0.806c0,0.356-0.087,0.623-0.272,0.793
							c-0.18,0.175-0.399,0.206-0.672,0.105c-0.277-0.105-0.5-0.29-0.671-0.584c-0.171-0.29-0.254-0.636-0.254-1.019
							c0-0.235,0.052-0.439,0.149-0.614C54.743,241.973,55.1,241.746,55.109,241.696z M55.427,242.015
							c-0.082-0.017-0.332,0.211-0.422,0.354c-0.089,0.146-0.128,0.328-0.128,0.545c0,0.242,0.043,0.462,0.15,0.664
							c0.105,0.199,0.245,0.319,0.4,0.377c0.166,0.057,0.305,0.041,0.402-0.08c0.109-0.122,0.152-0.304,0.152-0.553
							c0-0.217-0.043-0.434-0.133-0.643C55.765,242.474,55.532,242.038,55.427,242.015z M55.436,241.571
							c0.07,0.02,0.297-0.194,0.373-0.324c0.081-0.131,0.121-0.304,0.121-0.494c0-0.186-0.047-0.363-0.141-0.516
							c-0.087-0.155-0.208-0.267-0.353-0.319c-0.147-0.055-0.263-0.032-0.349,0.062c-0.087,0.094-0.127,0.24-0.127,0.454
							c0,0.182,0.031,0.368,0.109,0.552C55.146,241.173,55.351,241.559,55.436,241.571z"/>
						<path fill="#291112" d="M57.019,244.947c0.43-1.584,0.651-2.375,1.084-3.961c-0.505-0.184-0.763-0.28-1.267-0.466
							c0-0.161,0-0.236,0-0.396c0.66,0.239,0.995,0.358,1.658,0.599c0,0.114,0,0.178,0,0.294c-0.437,1.627-0.653,2.445-1.093,4.077
							C57.247,245.036,57.17,245.003,57.019,244.947z"/>
						<path fill="#291112" d="M59.019,243.257c0-0.892,0.067-1.502,0.204-1.808c0.134-0.313,0.368-0.414,0.696-0.295
							c0.331,0.119,0.561,0.394,0.696,0.802c0.137,0.409,0.212,1.067,0.212,1.963c0,0.895-0.07,1.489-0.208,1.799
							c-0.136,0.317-0.37,0.406-0.701,0.281c-0.328-0.115-0.568-0.392-0.701-0.791C59.081,244.795,59.019,244.151,59.019,243.257z
							 M59.386,243.395c0,0.784,0.037,1.325,0.118,1.635c0.075,0.308,0.218,0.509,0.416,0.577c0.202,0.078,0.339-0.017,0.418-0.266
							c0.073-0.247,0.104-0.773,0.104-1.564s-0.036-1.338-0.113-1.644c-0.078-0.3-0.207-0.485-0.407-0.562
							c-0.198-0.065-0.343,0.013-0.417,0.262C59.423,242.089,59.386,242.614,59.386,243.395z"/>
						<path fill="#291112" d="M61.281,246.422c0-0.164-0.004-0.243-0.004-0.404c0.059-0.195,0.142-0.391,0.254-0.586
							c0.11-0.197,0.285-0.468,0.542-0.815c0.019-0.023,0.04-0.048,0.068-0.089c0.34-0.465,0.531-0.884,0.531-1.229
							c0-0.225-0.044-0.41-0.133-0.575c-0.086-0.165-0.209-0.271-0.358-0.33c-0.167-0.057-0.301-0.024-0.384,0.105
							c-0.089,0.129-0.142,0.354-0.151,0.671c-0.131-0.046-0.192-0.072-0.323-0.122c0.006-0.454,0.082-0.771,0.229-0.942
							c0.142-0.169,0.361-0.207,0.652-0.1c0.25,0.096,0.464,0.265,0.611,0.517c0.142,0.249,0.219,0.546,0.219,0.89
							c0,0.405-0.219,0.897-0.658,1.477c-0.036,0.048-0.063,0.083-0.086,0.105c-0.204,0.287-0.373,0.513-0.465,0.672
							c-0.1,0.16-0.166,0.308-0.215,0.443c0.566,0.205,0.849,0.308,1.417,0.512c0,0.178,0,0.268,0,0.441
							C62.33,246.809,61.979,246.683,61.281,246.422z"/>
					</g>
				</g>
			</g>
		</g>
	</g>
	<path fill="#F6B496" d="M127.416,271.895c0,0-25.593,84.02,9.757,151.601c0,0,72.35,14.24,141.962-104.92l-41.16-41.408
		c0,0-39.178,62.264-62.098,73.557c0,0-25.125-53.304-8.366-93.073L127.416,271.895z"/>
	<path fill="#F6B496" d="M369.654,161.524c0,0-5.959,73.621-1.887,101.232c0,0-91.898,29.883-74.199,3.581
		c5.402-8.024,0-40.279,0-40.279l54.992-78.799L369.654,161.524z"/>
	<path fill="#F6B496" d="M305.7,254.786h-12.968c0,0-36.055,34.836-6.282,34.209c29.778-0.63,88.18-28.962,88.18-28.962
		l-9.862-0.619L305.7,254.786z"/>
	<path fill="#FCCDB5" d="M277.289,81.524l-15.816,120.123l36.932,15.566l77.271-18.954l-3.098-30.51
		c8.039,9.512,15.312,5.058,20.207-4.523c6.903-13.513,7.523-52.47-14.544-40.822l-0.004-25.962L277.289,81.524z"/>
	<path fill="#E8692E" d="M266.537,163.184c0,0-18.779,51.928-2.456,65.824c16.319,13.895,78.731,13.792,99.435-2.663
		c20.695-16.454,8.426-50.58,8.743-63.889c0.587-24.478,3.661-50.466,20.563-36.107l2.029-31.489l-29.06-0.255
		c0,0-8.155,109.919-56.325,109.967l0.572-8.338l-8.029-0.719l-3.557,10.351C298.454,205.865,259.95,213.208,266.537,163.184z"/>
	<path fill="#B54C26" d="M365.793,94.604c0,0-5.115,68.805-31.111,97.557c1.457,4.348,2.23,8.832,2.162,13.185
		c-0.252,15.339-7.894,26.649-19.094,33.509c18.373-0.951,36.479-4.902,45.766-12.509c31.338-25.671,8.426-50.58,8.743-63.889
		c0.587-24.478,3.661-50.466,20.564-36.107l2.028-31.489L365.793,94.604z"/>
	<path fill="#E8692E" d="M317.232,156.987l-16.057,1.737l0,0l-13.021,1.409l-12.489,11.186c18.62,6.637,25.899,0.927,28.741-4.906
		c3.643,5.131,11.109,9.245,25.92-1.011L317.232,156.987z"/>
	<path fill="#E8692E" d="M309.839,114.444c0,0,4.181-12.691-2.794-13.391c-6.972-0.7-18.544-3.952-24.837,11.391
		c0,0,17.787-5.353,25.011,2.25L309.839,114.444z"/>
	<g>
		<path fill="#E8692E" d="M330.229,113.492c8.625-6.588,28.936,1.496,28.936,1.496c-5.145-16.114-20.126-15.226-27.734-15.471
			c-7.609-0.246-2.924,13.605-2.924,13.605L330.229,113.492z"/>
	</g>
	<polygon fill="#F6B496" points="308.652,110.2 286.195,157.063 310.809,157.598 	"/>
	<path fill="#F6B496" d="M382.275,142.526c0,0,5.203-18.559,12.086-8.811c6.885,9.747,4.399,30.084-3.668,29.308l-6.403,0.61
		C384.29,163.634,400.569,145.621,382.275,142.526z"/>
	<g>
		<path fill="#CC8467" d="M392.139,131.468c-0.67-0.04-1.336,0.053-1.976,0.205c-0.64,0.161-1.251,0.408-1.802,0.752
			c-1.104,0.684-1.977,1.676-2.553,2.828c-0.576,1.156-0.899,2.425-1.094,3.713c-0.193,1.291-0.227,2.606-0.21,3.921l-0.337-0.453
			c0.534,0.182,0.995,0.397,1.467,0.643c0.465,0.248,0.915,0.52,1.344,0.827c0.86,0.61,1.629,1.36,2.269,2.21
			c0.315,0.429,0.597,0.884,0.837,1.361c0.234,0.479,0.43,0.978,0.572,1.491c0.145,0.513,0.234,1.037,0.298,1.562l0.053,0.791
			l-0.016,0.788c-0.038,0.521-0.084,1.046-0.199,1.553c-0.089,0.513-0.228,1.012-0.374,1.507c-0.301,0.987-0.691,1.938-1.143,2.855
			c-0.238,0.452-0.449,0.917-0.729,1.345c-0.271,0.431-0.512,0.879-0.808,1.292c-0.553,0.852-1.164,1.661-1.791,2.454
			c0.521-0.868,1.054-1.724,1.531-2.609c0.256-0.433,0.455-0.896,0.684-1.341c0.232-0.444,0.406-0.915,0.62-1.366
			c0.393-0.917,0.722-1.858,0.959-2.817c0.114-0.48,0.222-0.96,0.278-1.447c0.088-0.483,0.09-0.973,0.117-1.456l-0.006-0.726
			l-0.066-0.719c-0.07-0.475-0.166-0.945-0.308-1.401c-0.143-0.455-0.325-0.896-0.536-1.322c-0.217-0.423-0.472-0.827-0.758-1.208
			c-0.579-0.759-1.285-1.422-2.064-1.987c-0.39-0.285-0.803-0.538-1.227-0.77c-0.42-0.227-0.878-0.44-1.298-0.587l-0.333-0.117
			l-0.004-0.336c-0.018-1.36,0.079-2.728,0.316-4.08c0.117-0.676,0.283-1.346,0.513-1.999c0.22-0.655,0.51-1.288,0.849-1.894
			c0.698-1.193,1.69-2.266,2.946-2.867C389.402,131.457,390.814,131.231,392.139,131.468z"/>
	</g>
	<g>
		<path fill="#010101" d="M284.043,131.698c0,0,0.324-2.092,1.439-5.063c0.274-0.744,0.603-1.541,0.994-2.366
			c0.404-0.821,0.824-1.696,1.383-2.544c0.548-0.851,1.137-1.738,1.924-2.528c0.775-0.787,1.683-1.563,2.889-2.011
			c1.205-0.456,2.71-0.299,3.791,0.322c0.51,0.329,1.023,0.663,1.391,1.086c0.424,0.387,0.734,0.823,1.053,1.245
			c0.613,0.849,1.083,1.725,1.455,2.569c0.421,0.828,0.673,1.657,0.947,2.404c0.265,0.75,0.43,1.459,0.604,2.077
			c0.186,0.614,0.263,1.173,0.361,1.622c0.177,0.904,0.258,1.423,0.258,1.423s-0.243-0.471-0.635-1.297
			c-0.201-0.411-0.414-0.922-0.703-1.485c-0.281-0.563-0.599-1.199-0.942-1.893c-0.379-0.67-0.742-1.422-1.208-2.151
			c-0.436-0.75-0.965-1.488-1.527-2.19c-0.563-0.715-1.262-1.287-1.962-1.707c-0.724-0.366-1.464-0.421-2.22-0.14
			c-0.766,0.258-1.516,0.83-2.18,1.483c-0.668,0.656-1.291,1.395-1.84,2.155c-1.108,1.519-2.027,3.066-2.795,4.409
			c-0.76,1.348-1.375,2.495-1.804,3.303C284.288,131.234,284.043,131.698,284.043,131.698z"/>
	</g>
	<g>
		<path fill="#010101" d="M332.746,133.477c0,0,0.324-2.092,1.439-5.062c0.274-0.744,0.602-1.541,0.994-2.366
			c0.403-0.821,0.823-1.696,1.381-2.544c0.549-0.851,1.138-1.738,1.924-2.528c0.774-0.787,1.684-1.563,2.889-2.012
			c1.205-0.456,2.71-0.3,3.792,0.322c0.508,0.329,1.022,0.663,1.39,1.086c0.426,0.387,0.735,0.823,1.053,1.245
			c0.615,0.848,1.082,1.725,1.455,2.568c0.42,0.828,0.674,1.657,0.947,2.404c0.266,0.75,0.43,1.459,0.604,2.078
			c0.186,0.614,0.263,1.173,0.362,1.622c0.176,0.904,0.256,1.423,0.256,1.423s-0.242-0.471-0.635-1.297
			c-0.201-0.411-0.412-0.922-0.703-1.485c-0.281-0.563-0.598-1.199-0.942-1.893c-0.379-0.67-0.741-1.422-1.207-2.151
			c-0.437-0.75-0.966-1.488-1.529-2.19c-0.562-0.715-1.261-1.287-1.96-1.707c-0.725-0.366-1.464-0.421-2.22-0.14
			c-0.767,0.258-1.517,0.83-2.181,1.483c-0.668,0.656-1.291,1.395-1.838,2.156c-1.109,1.519-2.027,3.066-2.795,4.409
			c-0.76,1.349-1.375,2.495-1.804,3.303C332.99,133.013,332.746,133.477,332.746,133.477z"/>
	</g>
	<path fill="#FFFFFF" d="M288.16,177.691c0,0,39.695-4.041,48.38-9.941c0,0-0.243,25.773-40.567,23.067L288.16,177.691z"/>
	<path fill="#003C51" d="M271.914,73.105c0,0,3.752-61.365,81.789-44.489c56.575,12.233,42.673,70.333,42.673,70.333
		S273.305,79.147,271.914,73.105z"/>
	<path fill="#002A35" d="M275.666,102.194c0,0-63.438-31.386-30.083-46.164c51.485-22.812,101.688,37.84,150.793,42.92
		l-30.583-4.346C365.793,94.604,278.068,79.138,275.666,102.194z"/>
	<path fill="#005572" d="M292.732,254.786l-6.282,10.292c0,0-12.308,41.538,83.952-5.258c0,0,39.169,4.865,57.282,14.591
		c31.024,16.655,55.453,72.665,55.453,72.665l-52.279,22.968l-31.087,176.763c0,0-69.754,8.239-162.851-43.082
		c0,0-11-85.422-2.434-154.651l-38.805-23.277c0,0,24.105-52.413,49.681-64.933C267.338,256.05,292.732,254.786,292.732,254.786z"/>
	<path fill="#003C51" d="M427.686,274.411c-8.418-4.519-21.378-7.988-32.846-10.408c1.783,27.363,8.236,54.543,5.364,82.129
		c-3.609,34.679-20.624,69.51-49.802,89.817c-3.529,2.455-7.148,4.851-10.834,7.177c-2.491,2.932-5.09,5.813-7.857,8.615
		c-25.799,26.151-63.367,31.415-97.617,23.741c1.418,17.249,2.828,28.241,2.828,28.241c93.096,51.321,162.852,43.082,162.852,43.082
		l31.086-176.763l52.279-22.968C483.139,347.076,458.71,291.066,427.686,274.411z"/>
	<path fill="#FCCDB5" d="M477.529,349.543l-46.186,20.289l16.7,43.151c-23.834,12.269-47.406,17.35-65.328,19.348
		c-15.935,0.787-19.938-2.307-19.938-2.307s1.49-6.001-7.277-16.356l1.768-14.201c0,0-9.488-6.48-13.629,8.604
		c-1.766,6.432-0.971,15.077-0.971,15.077s-23.3-10.063-27.038-0.45c0,0-0.396,4.541,2.283,8.114c0,0-4.86,2.305-3.129,10.722
		c0,0-4.024,5.807,0.065,9.328c0,0-3.785,3.343-1.832,7.117c1.844,3.574,27.59,13.901,42.347,5.394
		c7.252,1.221,14.852,2.033,22.245,2.095c0,0,0.021-0.037,0.05-0.085c51.257,7.177,122.333-14.985,122.34-26.599
		C500.015,411.72,477.529,349.543,477.529,349.543z"/>
	<g>
		<path fill="#F6B496" d="M477.529,349.543l-19.127,8.4c6.356,20.347,13.933,47.881,13.927,63.595
			c-0.005,10.793-61.404,30.671-111.224,27.658c-10.853,4.624-22.406,5.729-35.265,5.729c-1.213,0-2.413-0.051-3.602-0.138
			c-2.214,0.083-4.45,0.138-6.743,0.138c-0.98,0-1.954-0.044-2.921-0.101c-0.185,0.966-0.138,2.035,0.442,3.151
			c1.844,3.574,27.59,13.901,42.347,5.394c7.252,1.221,14.852,2.033,22.245,2.095c0,0,0.021-0.037,0.05-0.085
			c51.257,7.177,122.333-14.988,122.34-26.599C500.015,411.72,477.529,349.543,477.529,349.543z"/>
	</g>
	<path fill="#003C51" d="M207.71,333.009c0,0,23.484-28.329,33.185-30.916c0,0-4.205,22.89-6.408,46.979L207.71,333.009z"/>
</g>
<g>
	<path fill="#FFFFFF" d="M360.153,333.259l6.704-13.992l7.287,13.992l4.275,0.874c0,0-19.918,1.361-27.983,6.996l-6.315-5.83
		L360.153,333.259z"/>
	<path fill="#FFFFFF" d="M378.906,334.133l3.692,0.486c0,0-16.228,5.732-26.332,12.923l-2.721-3.206
		C353.546,344.336,363.457,337.534,378.906,334.133z"/>
	<path fill="#FFFFFF" d="M383.473,334.91l6.025,0.584l-11.078,10.979l2.527,15.936l-13.701-7.967l-13.7,7.967v-5.441
		C353.546,356.967,365.498,343.461,383.473,334.91z"/>
</g>
<g>
	<path fill="#F4F4F4" d="M44.146,143.523l10.607-11.323l2.734,15.537l3.813,2.122c0,0-19.403-4.702-28.791-1.758l-4.266-7.462
		L44.146,143.523z"/>
	<path fill="#F4F4F4" d="M61.765,150.006l3.374,1.576c0,0-17.2,0.578-29.001,4.391l-1.628-3.876
		C34.509,152.096,46.008,148.595,61.765,150.006z"/>
	<path fill="#F4F4F4" d="M65.885,152.123l5.569,2.372l-13.871,7.132l-2.39,15.957l-10.665-11.724l-15.463,3.47l1.639-5.188
		C30.704,164.14,46.169,154.862,65.885,152.123z"/>
</g>
</svg>
